<?xml version="1.0" encoding="utf-8"?>
<!-- Generator: Adobe Illustrator 23.0.3, SVG Export Plug-In . SVG Version: 6.00 Build 0)  -->
<svg version="1.1" id="Layer_1" xmlns="http://www.w3.org/2000/svg" xmlns:xlink="http://www.w3.org/1999/xlink" x="0px" y="0px"
	 viewBox="0 0 254.1 60.8" style="enable-background:new 0 0 254.1 60.8;" xml:space="preserve">
<style type="text/css">
	.st0{stroke:#FFFFFF;stroke-width:4.7366;}
	.st1{fill:#515458;}
	.st2{fill:none;}
	.st3{fill:#A52B43;}
</style>
<path class="st0" d="M144.2-18.6"/>
<path d="M144.2-18.6"/>
<path class="st1" d="M81.7,20h-19v1.7l4.3,1.4h35.8V20H87.7v-3.5h10.4v-3.3h-1.6c0,0,2.1-8.9,2.1-11.7H67.3v1.6l4.3,1.4v13.4h6.3
	v-1.6h3.7L81.7,20L81.7,20z M77.9,13.4V4.9h14.6L92,13.4H77.9L77.9,13.4z"/>
<path class="st1" d="M81.7,20h-19v1.7l4.3,1.4h35.8V20H87.7v-3.5h10.4v-3.3h-1.6c0,0,2.1-8.9,2.1-11.7H67.3v1.6l4.3,1.4v13.4h6.3
	v-1.6h3.7L81.7,20L81.7,20z M77.9,13.4V4.9h14.6L92,13.4H77.9L77.9,13.4z"/>
<polygon class="st1" points="68.6,26 98.1,26 98.1,40 91.8,40 91.8,29 71.8,29 68.6,27.6 "/>
<polygon class="st1" points="68.6,26 98.1,26 98.1,40 91.8,40 91.8,29 71.8,29 68.6,27.6 "/>
<path class="st1" d="M121.9,3.1c0.1-0.5-0.8-0.9-0.8-0.9l-7.4-1.1v1.1c0,0,1.3,0.4,1.7,0.7c0,0,0.7,0.4,0,1
	c-4.7,0.9-8.1,3.7-8.1,7.1c0,4.1,4.9,7.4,10.9,7.4c6.1,0,10.9-3.3,10.9-7.4c0-3.4-3.4-6.2-8-7.1C121.1,3.8,121.8,3.8,121.9,3.1
	L121.9,3.1z M117.9,15.3c-2.4,0-4.3-1.9-4.3-4.3s1.9-4.3,4.3-4.3s4.3,1.9,4.3,4.3C122.2,13.3,120.2,15.3,117.9,15.3L117.9,15.3z"/>
<path class="st1" d="M121.9,3.1c0.1-0.5-0.8-0.9-0.8-0.9l-7.4-1.1v1.1c0,0,1.3,0.4,1.7,0.7c0,0,0.7,0.4,0,1
	c-4.7,0.9-8.1,3.7-8.1,7.1c0,4.1,4.9,7.4,10.9,7.4c6.1,0,10.9-3.3,10.9-7.4c0-3.4-3.4-6.2-8-7.1C121.1,3.8,121.8,3.8,121.9,3.1
	L121.9,3.1z M117.9,15.3c-2.4,0-4.3-1.9-4.3-4.3s1.9-4.3,4.3-4.3s4.3,1.9,4.3,4.3C122.2,13.3,120.2,15.3,117.9,15.3L117.9,15.3z"/>
<polygon class="st1" points="129,-0.2 129,1.6 132.3,3 132.3,24.3 121.2,24.3 121.2,26.1 125.3,27.5 131.9,27.5 131.9,32.2 
	138.4,32.2 138.4,1.7 "/>
<polygon class="st1" points="129,-0.2 129,1.6 132.3,3 132.3,24.3 121.2,24.3 121.2,26.1 125.3,27.5 131.9,27.5 131.9,32.2 
	138.4,32.2 138.4,1.7 "/>
<path class="st1" d="M130.8,17.7c-10.1,3.7-26.3,2.4-26.3,2.4v1.5l2.9,1.2c2.1,0.1,4.1,0.2,5.9,0.1v6.2h6.3v-6.5
	c6.7-0.7,11.1-2,11.1-2L130.8,17.7L130.8,17.7z"/>
<path class="st1" d="M130.8,17.7c-10.1,3.7-26.3,2.4-26.3,2.4v1.5l2.9,1.2c2.1,0.1,4.1,0.2,5.9,0.1v6.2h6.3v-6.5
	c6.7-0.7,11.1-2,11.1-2L130.8,17.7L130.8,17.7z"/>
<path class="st1" d="M110.2,29.2v1.3l3.1,1.8v4.2c0,0,0.1,2.8,2.4,3.1h23.6v-3.1h-19.7v-5.7L110.2,29.2L110.2,29.2z"/>
<path class="st1" d="M110.2,29.2v1.3l3.1,1.8v4.2c0,0,0.1,2.8,2.4,3.1h23.6v-3.1h-19.7v-5.7L110.2,29.2L110.2,29.2z"/>
<path class="st1" d="M139.3,5.7v1.9l4.2,1.2v19.3c0,0,0.4,3.7,3.4,3.5c0,0,3.6,0.8,13.8-2.9l0.2-0.1v7.9h5.7V17.1h2.5v23h5.8v-25
	V1.8l-8.3-2v2.5l2.6,0.6v10.9h-2.5V3.1L157.2,1v1.9l3.6,1.7v21.5c0,0-10,2.5-10.9,1.7V8.7h9.9v-3H139.3L139.3,5.7z"/>
<path class="st1" d="M139.3,5.7v1.9l4.2,1.2v19.3c0,0,0.4,3.7,3.4,3.5c0,0,3.6,0.8,13.8-2.9l0.2-0.1v7.9h5.7V17.1h2.5v23h5.8v-25
	V1.8l-8.3-2v2.5l2.6,0.6v10.9h-2.5V3.1L157.2,1v1.9l3.6,1.7v21.5c0,0-10,2.5-10.9,1.7V8.7h9.9v-3H139.3L139.3,5.7z"/>
<polygon class="st1" points="184.7,2.1 198.2,2.1 198.2,4.9 188.8,4.9 184.7,3.7 "/>
<polygon class="st1" points="184.7,2.1 198.2,2.1 198.2,4.9 188.8,4.9 184.7,3.7 "/>
<path class="st1" d="M191.4,9.8c-6.1,0-11.1,3.3-11.1,7.4s5,7.4,11.1,7.4s11.1-3.3,11.1-7.4C202.4,13.1,197.5,9.8,191.4,9.8
	L191.4,9.8z M191.4,21.6c-2.4,0-4.4-2-4.4-4.4s2-4.4,4.4-4.4s4.4,2,4.4,4.4C195.8,19.7,193.8,21.6,191.4,21.6L191.4,21.6z"/>
<path class="st1" d="M191.4,9.8c-6.1,0-11.1,3.3-11.1,7.4s5,7.4,11.1,7.4s11.1-3.3,11.1-7.4C202.4,13.1,197.5,9.8,191.4,9.8
	L191.4,9.8z M191.4,21.6c-2.4,0-4.4-2-4.4-4.4s2-4.4,4.4-4.4s4.4,2,4.4,4.4C195.8,19.7,193.8,21.6,191.4,21.6L191.4,21.6z"/>
<path class="st1" d="M194.2,9h10V6.1H178V8l3.8,1h6.9c0,0,1.9,0.5,0.1,1.5h5.5C194.2,10.5,196,9.7,194.2,9L194.2,9z"/>
<path class="st1" d="M194.2,9h10V6.1H178V8l3.8,1h6.9c0,0,1.9,0.5,0.1,1.5h5.5C194.2,10.5,196,9.7,194.2,9L194.2,9z"/>
<polygon class="st1" points="202.4,-0.1 202.4,1.7 205.6,3 205.6,24.8 211.7,24.8 211.7,17.2 217.6,17.2 217.6,13.8 211.9,13.8 
	211.9,1.6 "/>
<polygon class="st1" points="202.4,-0.1 202.4,1.7 205.6,3 205.6,24.8 211.7,24.8 211.7,17.2 217.6,17.2 217.6,13.8 211.9,13.8 
	211.9,1.6 "/>
<polygon class="st1" points="181.1,26 181.1,28 184.8,28.9 205.4,28.9 205.4,40 211.4,40 211.4,26 "/>
<polygon class="st1" points="181.1,26 181.1,28 184.8,28.9 205.4,28.9 205.4,40 211.4,40 211.4,26 "/>
<path class="st1" d="M217.5,5.4V7l3.1,1.2h23.9v7.3c0,0-0.6,9.7-2.5,14.4h4.4c0,0,3.4-7,4.3-17.8V5.4L217.5,5.4L217.5,5.4z"/>
<path class="st1" d="M217.5,5.4V7l3.1,1.2h23.9v7.3c0,0-0.6,9.7-2.5,14.4h4.4c0,0,3.4-7,4.3-17.8V5.4L217.5,5.4L217.5,5.4z"/>
<polygon class="st1" points="222.7,14.6 222.7,16.9 225.6,17.8 225.6,33.1 214.3,33.1 214.3,34.8 218.8,36.3 253.9,36.3 253.9,33.4 
	240.9,33.4 240.9,15.2 231.7,13.1 231.7,15.4 234.6,16.7 234.6,33.3 231.5,33.3 231.5,16.1 "/>
<polygon class="st1" points="222.7,14.6 222.7,16.9 225.6,17.8 225.6,33.1 214.3,33.1 214.3,34.8 218.8,36.3 253.9,36.3 253.9,33.4 
	240.9,33.4 240.9,15.2 231.7,13.1 231.7,15.4 234.6,16.7 234.6,33.3 231.5,33.3 231.5,16.1 "/>
<path class="st1" d="M63.7,45.5c0,0-0.9,0.4-0.1,0.7c0,0,1.6,0.3,1.6,2.3v7.2c0,0,0.1,2.3-1.5,2.3c0,0-0.6,0.5,0.3,0.5h4.4
	c0,0,0.5-0.3,0-0.4c0,0-2.5,0.3-2.5-2.6v-8l0.3-0.1c0,0,5.1,10.7,5.3,11.4c0,0,4.9-10.8,5.4-11.2c0,0,0.4-0.6,0.4,0.3v7.9
	c0,0,0,2.2-2.3,2.2c0,0-1,0.3-0.2,0.5H80c0,0,0.5-0.3-0.2-0.5c0,0-1.5-0.2-1.5-2.4v-8.2c0,0,0.1-1.5,1.6-1.5c0,0,0.7-0.4-0.1-0.4h-3
	c0,0-1.6,5-4.9,10.8c0,0-2.1-3.6-5-10.8L63.7,45.5L63.7,45.5z"/>
<path class="st1" d="M79.8,49.8c0,0,1.4-4.9,7.6-4.5c0,0,5.8,0.1,6.1,6.3c0,0,0.7,6.9-6.7,7.6c0,0-6.2,0.6-7.2-6.1
	C79.5,53.2,79.4,51.6,79.8,49.8L79.8,49.8z M81.1,51.9c-0.2,3.3,1.6,4.6,1.6,4.6c1.4,1.9,4.2,1.7,4.2,1.7c2.1,0.3,3.6-1.3,3.6-1.3
	c2.1-2.7,1-6.6,1-6.6c-0.7-3-3.5-3.8-3.5-3.8c-3.1-0.8-5.1,0.6-5.1,0.6C80.8,48.7,81.1,51.9,81.1,51.9L81.1,51.9z"/>
<path class="st1" d="M122.8,49.6c0,0,1.4-4.9,7.6-4.5c0,0,5.8,0.1,6.1,6.3c0,0,0.7,6.9-6.7,7.6c0,0-6.2,0.6-7.2-6.1
	C122.6,53,122.4,51.3,122.8,49.6L122.8,49.6z M124.1,51.7c-0.2,3.3,1.6,4.6,1.6,4.6c1.4,1.9,4.2,1.7,4.2,1.7
	c2.1,0.3,3.6-1.3,3.6-1.3c2.1-2.7,1-6.6,1-6.6c-0.7-3-3.5-3.8-3.5-3.8c-3.1-0.8-5,0.6-5,0.6C123.8,48.5,124.1,51.7,124.1,51.7
	L124.1,51.7z"/>
<path class="st1" d="M93.1,45.5c0,0-0.7,0.1-0.1,0.5c0,0,1.4-0.1,1.5,1.4v8.8c0,0,0.1,1.6-1.5,1.9c0,0-0.7,0.6,0.3,0.6H98
	c0,0,0.6-0.3-0.1-0.5c0,0-2.3,0.1-2.3-2.3v-4.3c0,0,1.1-0.3,3.7,3.4l2.4,3.4c0,0,0,0.2,0.3,0.2h2.1c0,0,0.6-0.4-0.7-0.7
	c0,0-0.5-0.2-1.1-1c0,0-2.4-3.1-3.1-3.9c0,0-1.3-1.6-2.3-2c0,0,2.9-3,3.8-3.8c0,0,0.7-0.9,1.9-1.1c0,0,0.7-0.3,0.1-0.5h-3.5
	c0,0-0.5,0.3,0,0.5c0,0,1.3,0.3,0.4,1.4c0,0-1.3,1.4-3.3,3.3c0,0-0.3-0.1-0.7,0v-3.3c0,0,0.1-1.4,1.7-1.4c0,0,0.6-0.4,0-0.4
	L93.1,45.5L93.1,45.5z"/>
<path class="st1" d="M117.6,58.5l-3.2-10.1c-0.1-0.6-0.4-0.1-0.4-0.1s-3.1,8.2-3.2,9.7l-0.2,0.5h-0.9c-0.3-0.1-0.2-0.2-0.2-0.2
	l-1.7-6.1c-1.7-5.8-3-6.2-3-6.2c-1.1-0.3,0.1-0.5,0.1-0.5h5.3c0.5,0.2,0.1,0.6,0.1,0.6c-1.5-0.1-2.1,0.2-2.1,0.2
	c-0.4,0.1-0.7,0.8-0.6,1.2c0.5,1.7,1.2,4.2,1.2,4.2l1.6,4.9l3.6-10.8c0.1-0.5,0.7-0.5,0.7-0.5s0.3,0,0.9,2.3c0,0,1.4,5.5,2.7,8.4
	l0.3,0.6l2.3-7.7c0.5-1.8-0.2-2.4-0.2-2.4c-0.5-0.5-2.1-0.6-2.1-0.6c-0.7-0.2-0.1-0.4-0.1-0.4h4.1c0.6,0,0.2,0.6,0.2,0.6
	s-2.9,7.5-3.6,11.2c0,0-0.2,1.2-0.6,1.3L117.6,58.5L117.6,58.5z"/>
<path class="st1" d="M146.6,55.8v-7.5c-0.1-1.6-0.9-1.9-0.9-1.9c-0.6-0.3-1.8-0.4-1.8-0.4c-0.6-0.3,0-0.6,0-0.6h4.9
	c0.9,0.2,0,0.6,0,0.6c-0.7,0.2-0.9,0.4-0.9,0.4c-0.5,0.2-0.5,1.1-0.5,1.1v10.6c-0.1,0.5-0.4,0.3-0.4,0.3c-0.8,0-1.2-1-1.2-1
	c-3.9-5.7-7.1-9.4-7.1-9.4v8c0.1,0.6,0.3,0.8,0.3,0.8c0.4,1.1,2.3,0.9,2.3,0.9c0.5,0.2,0.1,0.6,0.1,0.6h-5.2c-0.4-0.4,0-0.6,0-0.6
	c1.6,0.1,1.6-1.9,1.6-1.9v-8.1c0.1-0.9-0.4-1.3-0.4-1.3c-0.6-0.7-1.2-0.6-1.2-0.6c-0.5-0.4,0-0.6,0-0.6h2.2c0,0,0.6,0.2,0.9,0.9
	c0,0,1.6,2.9,6.3,8.7C145.5,55.1,146.4,56.3,146.6,55.8L146.6,55.8z"/>
<path class="st1" d="M152.9,45.6c0,0-0.8,0.2,0,0.4c0,0,1,0,1,0.9v7.5c0,0-0.1,4.6,4.7,4.6c0,0,4.4,0,4.4-4.6v-7.1
	c0,0-0.1-1.3,1.2-1.3c0,0,0.6-0.4,0-0.4h-3.6c0,0-0.7-0.1,0,0.3c0,0,1.7,0.1,1.7,1.4v8.1c0,0-0.3,3-3.8,3c0,0-3.1-0.2-3.1-3.2v-7.7
	c0,0,0.1-1.2,1-1.3c0,0,0.8-0.3,1.4-0.2c0,0,0.9-0.5-0.1-0.5L152.9,45.6L152.9,45.6z"/>
<path class="st1" d="M178.9,45.6c0,0-0.6,0.3-0.1,0.5c0,0,1-0.1,1,1.1v9.3c0,0,0,1.6-1.3,1.6c0,0-0.8,0.5,0,0.5h4.2
	c0,0,0.6-0.3-0.2-0.5c0,0-1.2,0-1.2-1.6v-9c0,0-0.1-1.5,1.4-1.5c0,0,0.8-0.4-0.2-0.5L178.9,45.6L178.9,45.6z"/>
<path class="st1" d="M190.9,58.2c-0.4,1.2-1.8,0.7-1.8,0.7l-2.6-7.2l-1.9-4.6c-0.4-0.9-1-0.9-1-0.9c-0.5-0.3,0-0.6,0-0.6h5
	c0.8,0.2,0.1,0.6,0.1,0.6l-1.1,0.1c-1.6,0.2-0.6,2.5-0.6,2.5l3.2,9.2l3.6-9.6c0.3-1-0.3-1.5-0.3-1.5c-0.6-0.7-1.8-0.6-1.8-0.6
	c-0.5-0.3,0-0.6,0-0.6h3.8c0,0,0.6,0,0.1,0.6C195.5,46.2,193,51.6,190.9,58.2L190.9,58.2z"/>
<path class="st1" d="M196.5,46.1c0,0,1.2,0.3,1.2,1.6v9c0,0,0.1,1.3-1.3,1.3c0,0-0.7,0.2,0,0.5h9v-3.4c0,0-0.4-0.6-0.6,0.1
	c0,0,0.3,2.6-1.6,2.6h-4.1V52h1.9c0,0,2-0.1,2,1.7c0,0,0.2,0.9,0.5,0v-3.6c0,0-0.4-0.8-0.5,0c0,0,0.1,1.4-1.4,1.4h-2.4v-4.1
	c0,0-0.2-1.2,1.2-1.2h2.9c0,0,1.4-0.1,1.4,1.8c0,0,0.2,0.6,0.5,0v-2.6h-8.6C196.5,45.5,195.9,45.8,196.5,46.1L196.5,46.1z"/>
<path class="st1" d="M211.9,51.8c1.6,0.3,2.6,2.9,2.6,2.9c0.3,0.9,1.2,2.5,1.2,2.5c0.4,0.6,1.2,0.9,1.2,0.9c0.4,0.2,0.1,0.5,0.1,0.5
	h-2.1c-0.4,0-2.2-4.6-2.2-4.6c-0.7-1.5-1.6-1.9-1.6-1.9c-0.5-0.3-1.6-0.2-1.6-0.2v4.4c0,1.8,1.7,1.8,1.7,1.8c1,0,0.5,0.6,0.5,0.6
	h-5.1c-0.7-0.3,0.1-0.6,0.1-0.6c1.7,0.1,1.3-1.7,1.3-1.7V47c0-0.8-1.3-0.7-1.3-0.7c-0.6-0.4,0-0.7,0-0.7h5.6c3.2,0,3.1,3.2,3.1,3.2
	C215.2,51.6,211.9,51.8,211.9,51.8L211.9,51.8z M213.9,48.8c0,0,0.1-2.6-2.8-2.6c0,0-1.8-0.2-1.8,0.9v4.1h2.4
	C211.7,51.2,213.8,50.8,213.9,48.8L213.9,48.8z"/>
<path class="st1" d="M221.8,45.5c0,0-4.2,0-4.2,3.3c0,0-0.1,1.7,1.9,2.6l3.7,1.9c0,0,1.2,0.5,1.2,2.2c0,0,0.3,2.6-2.8,2.6
	c0,0-3.2,0.2-3.2-1.7l-0.1-1.2c0,0-0.4-0.8-0.7-0.2v3.2c0,0,0.1,0.3,0.6,0.3h4.3c0,0,3.2,0.1,3.3-3c0,0,0.3-2.1-2.1-3.4l-3.8-2
	c0,0-0.8-0.3-0.8-1.6c0,0-0.4-2.4,2.7-2.4c0,0,2.8-0.3,2.8,2.4c0,0,0.3,0.7,0.6,0v-2.8c0,0-0.1-0.3-0.5-0.3L221.8,45.5L221.8,45.5z"
	/>
<path class="st1" d="M231.9,45.5h10.6c0,0,0.2,0,0.2,0.4v2.6c0,0-0.3,0.5-0.5,0c0,0-0.5-2.4-2.4-2.4H238v10c0,0-0.1,2,2,2
	c0,0,0.6,0.5,0.1,0.5h-5.7c0,0-0.6-0.2,0.2-0.5c0,0,2.1,0.2,2.1-2.2v-9.8h-2c0,0-2.2-0.1-2.3,2.2c0,0-0.4,0.7-0.6-0.1L231.9,45.5
	L231.9,45.5z"/>
<path class="st1" d="M244,45.4c0,0-0.7,0.1-0.1,0.7c0,0,0.7-0.3,4.4,5.9v4.3c0,0,0.2,1.7-1.7,1.7c0,0-0.8,0.3,0,0.5h5.1
	c0,0,0.5-0.2-0.1-0.5c0,0-1.9,0.2-1.9-1.8v-4.3c0,0,3.4-5.3,4.3-6.3c0,0,0.3-0.3-0.2-0.3h-1.2l-3.2,6.4l-2.6-4c0,0-0.9-1.6,0.9-1.6
	h1c0,0,0.7-0.3,0.1-0.5L244,45.4L244,45.4z"/>
<path class="st1" d="M175.3,55.8v-7.5c-0.1-1.6-0.9-1.9-0.9-1.9c-0.6-0.3-1.8-0.4-1.8-0.4c-0.6-0.3,0-0.6,0-0.6h4.9
	c0.9,0.2,0,0.6,0,0.6c-0.7,0.2-0.9,0.4-0.9,0.4c-0.5,0.2-0.5,1.1-0.5,1.1v10.6c-0.1,0.6-0.4,0.3-0.4,0.3c-0.9-0.4-1.2-1.2-1.2-1.2
	c-4-6-7.1-9.4-7.1-9.4v8.3c0.1,0.6,0.3,0.8,0.3,0.8c0.4,1.1,2.3,0.9,2.3,0.9c0.5,0.2,0.1,0.6,0.1,0.6H165c-0.4-0.4,0-0.6,0-0.6
	c1.6,0.1,1.6-1.9,1.6-1.9v-8.1c0.1-0.9-0.4-1.3-0.4-1.3c-0.6-0.7-1.2-0.6-1.2-0.6c-0.5-0.4,0-0.6,0-0.6h2.2c0,0,0.6,0.2,0.9,0.9
	c0,0,1.6,2.9,6.3,8.7C174.3,55.1,175.2,56.3,175.3,55.8L175.3,55.8z"/>
<path class="st1" d="M227.3,45.5c0,0-0.6,0.3-0.1,0.5c0,0,1-0.1,1,1.1v9.3c0,0,0,1.6-1.3,1.6c0,0-0.9,0.5,0,0.5h4.2
	c0,0,0.6-0.3-0.2-0.5c0,0-1.2,0-1.2-1.6v-8.8c0,0-0.1-1.5,1.3-1.5c0,0,0.8-0.4-0.2-0.5L227.3,45.5L227.3,45.5z"/>
<path class="st2" d="M26.4,50h0.4c6.4,0,14.7-6,14.8-14.9v-0.9V13.8l-4.8,5.5v14c0,4.8-1.3,6.3-1.3,6.3c-0.1-0.3-0.6-5.8-0.6-11v-6
	h-0.7v5.9c0,0,0,0.2,0,1.2l-0.4,12l-0.6,0.9c-0.2-2.5-0.8-8.7-0.9-14.8v-7.9h-0.7V28c0,8.7-0.3,15.8-0.3,15.8l-0.8,0.5
	c-0.4-3.1-0.8-8.9-1-16.8v-9.9h-0.7l-0.1,9c0,0,0.1,1.3,0,3l-0.3,15.2l-0.9,0.1c-0.3-2.3-0.8-10.1-0.9-17.8V15.8h-0.7v11.4v2
	l-0.3,15.7l-0.8-0.1c-0.2-0.7-0.6-6.6-0.9-17.2v-10h-0.7v10c0.1,13.2-0.3,16.9-0.3,16.9l-0.6-0.3c-0.4-1.6-0.9-10.3-1.1-16.4v-7.4
	h-0.7v7.7c0.1,7.4-0.4,14.7-0.4,14.7L19.4,42c-0.3-1.7-0.7-6.3-0.8-13v-6.4h-0.7v6.3l-0.3,10.5c-1.5-1.1-1.5-7.4-1.5-7.4V19.2
	l-5-5.1v20.2v0.3C10.9,42.1,17.5,50,26.4,50z"/>
<path class="st3" d="M26.5,60.7c-0.2,0-0.3,0-0.5,0h-0.1H26.5z"/>
<path class="st1" d="M6.3,34.5c0.6,0,1.1-0.1,1.4-0.4c0.3-0.3,0.6-0.6,0.6-1s-0.2-0.8-0.6-1c-0.4-0.3-0.9-0.4-1.4-0.4
	c-0.6,0-1.1,0.1-1.4,0.4c-0.4,0.3-0.6,0.6-0.6,1s0.2,0.8,0.6,1C5.2,34.3,5.7,34.5,6.3,34.5z"/>
<polygon class="st1" points="28.2,55.4 28.3,53.4 26.9,55.3 "/>
<path class="st1" d="M12.8,46.8c-0.3-0.3-0.6-0.4-1.1-0.4c-0.5,0.1-0.9,0.3-1.3,0.7c-0.4,0.4-0.7,0.8-0.8,1.2
	c-0.1,0.4,0,0.8,0.2,1.1c0.3,0.3,0.6,0.4,1.1,0.4c0.5-0.1,0.9-0.3,1.3-0.7c0.4-0.4,0.7-0.8,0.8-1.2C13.1,47.4,13,47.1,12.8,46.8z"/>
<path class="st1" d="M52.5,1.5h-3.1l-4.1,4.2v-6.2h-3.8l-4.6,5.3v-6.7h-6.3l-4.4,5.4l-4.5-5.4H16v7l-5.4-5.5H6.9v6.3L2.7,1.6H0v31
	v1.7c0,14.9,11.7,26.1,26,26.3c15,0,26.5-11.5,26.5-26v-1.3V1.5z M44.6,26h0.2v0.1l0.1,0.2l0.4-0.2l1.2-0.8l-1.2-0.7l-0.4-0.1
	l-0.2,0.2v0.1h-0.2v-1.1h0.2v0.1l0.1,0.3c0.1,0.1,0.2,0.2,0.4,0.3l1.5,0.8H48c0.2,0,0.4,0,0.4-0.1c0.1-0.1,0.1-0.2,0.1-0.5l0,0h0.2
	v1.8h-0.2l0,0c0-0.2,0-0.4-0.1-0.5s-0.2-0.1-0.4-0.1h-1.2l-1.5,0.9c-0.3,0.2-0.5,0.4-0.5,0.6l0,0h-0.2V26z M48.5,33l-0.4-0.1h-2.7
	c-0.2,0-0.4,0-0.4,0.1l-0.1,0.4l0,0h-0.2v-1.6h0.2l0,0l0.1,0.4l0.4,0.1h2.7l0.4-0.1l0.1-0.4l0,0h0.2v1.6h-0.2l0,0L48.5,33z
	 M48.8,30.6h-0.2l0,0c0-0.2,0-0.4-0.1-0.5S48.3,30,48.1,30h-3.2v0.4c0,0.3,0,0.6,0.1,0.7c0.1,0.1,0.2,0.2,0.5,0.2l0,0v0.3l-0.9-0.1
	c0-0.5,0.1-1,0.1-1.5v-0.6c0-0.5,0-1-0.1-1.5l0.9-0.1V28l0,0c-0.2,0-0.4,0.1-0.5,0.2c-0.1,0.1-0.1,0.4-0.1,0.7v0.4h3.2
	c0.2,0,0.4,0,0.4-0.1s0.1-0.2,0.1-0.5l0,0h0.2V30.6z M36.8,9.9l4.8-5.2v5l-4.8,5.4V9.9z M32.1,3v6.4l-2.4,2.8L27,9.1L32.1,3z
	 M20,2.9L25.2,9l-2.7,3.2l-2.6-3V2.9H20z M10.9,4.9l5,5v5.2l-5-5V4.9z M10.9,34.3V14.1l5,5.1V32c0,0,0,6.3,1.5,7.4l0.3-10.5v-6.3
	h0.7v6.2c0.1,6.6,0.5,11.3,0.8,13l0.7,0.8c0,0,0.5-7.3,0.4-14.7v-7.7H21v7.4c0.2,6.1,0.7,14.8,1.1,16.4l0.6,0.3
	c0,0,0.4-3.7,0.3-16.9v-10h0.7v10C24,38,24.5,44,24.6,44.6l0.8,0.1L25.7,29v-2V15.7h0.7V27c0.1,7.7,0.6,15.5,0.9,17.8l0.9-0.1
	l0.3-15.2c0.1-1.7,0-3,0-3l0.1-9h0.7v9.9c0.1,7.9,0.5,13.7,1,16.8l0.8-0.5c0,0,0.4-7.1,0.3-15.8v-8.1h0.7v7.9
	c0.1,6.1,0.7,12.3,0.9,14.8l0.7-0.8l0.4-12c0-1,0-1.2,0-1.2v-5.9H35v6c0,5.2,0.5,10.8,0.6,11c0,0,1.3-1.5,1.3-6.3v-14l4.8-5.5v20.4
	v0.9C41.6,44,33.2,49.9,26.9,50h-0.4C17.7,50.1,11,42.1,11,34.6L10.9,34.3z M7.5,25.9L8,25.8l0.1-0.4l0,0h0.2v1l-2.9,1.5l2.9,1.6v1
	H8.1l0,0L8,30l-0.4-0.1H4.9L4.5,30l-0.1,0.4l0,0H4.2v-1.3h0.2l0,0l0,0.5l0.4,0.1h2.7l-3-1.6l3.2-1.7h-3c-0.2,0-0.4,0-0.4,0.1
	l-0.1,0.4l0,0l0,0v-1.6h0.2l0,0l0.1,0.4c0.1,0.1,0.2,0.1,0.5,0.1L7.5,25.9L7.5,25.9z M2.9,5.7l4,4.2v4.5l-4-3.9V5.7z M4.7,31.6
	C5.1,31.2,5.6,31,6.3,31c0.6,0,1.1,0.2,1.5,0.6c0.4,0.4,0.6,0.9,0.6,1.5c0,0.5-0.1,1-0.5,1.3c-0.2,0.2-0.4,0.4-0.8,0.5
	c-0.3,0.1-0.6,0.2-0.9,0.2c-0.6,0-1.2-0.2-1.6-0.6C4.2,34.1,4,33.6,4,33C4.1,32.5,4.3,32,4.7,31.6z M4.7,39.1l-0.1,0.3l0,0H4.4v-0.9
	l1.9-2.1L5,36.5l-0.4,0.1L4.5,37l0,0H4.3l-0.1-1.6h0.2l0,0l0.1,0.4L5,36l2.7-0.1l0.4-0.1l0.1-0.4l0,0h0.2L8.5,37H8.3l0,0l-0.1-0.4
	l-0.4-0.1l-1.2,0.1l1.3,1.2c0.2,0.2,0.4,0.3,0.4,0.3l0.1-0.2l0,0h0.2v1.2H8.4l0,0c0-0.2-0.2-0.5-0.6-0.8l-1.1-1.1l-1.6,1.4L4.7,39.1
	z M7,45.7v-0.2l2.5-2.4L6,43.4l-0.1-0.2l2.7-2.5l0.3-0.4v-0.2V40L9,40l0.5,1l-0.2,0.1l0,0L9,40.9l-0.3,0.2l-2,1.8l3.5-0.3l0.1,0.2
	l-2.5,2.4l2.6-0.4l0.3-0.1l0.1-0.1l-0.1-0.3v-0.1l0.2-0.1l0.6,1.2l-0.2,0.1l0,0l-0.2-0.2h-0.5L7,45.7z M10.9,50.2
	c-0.5-0.1-0.9-0.3-1.2-0.7c-0.4-0.5-0.6-1-0.5-1.5c0-0.5,0.3-1,0.8-1.5c0.5-0.4,1-0.6,1.5-0.6s1,0.2,1.4,0.7s0.6,1,0.5,1.5
	c0,0.6-0.3,1-0.8,1.5c-0.2,0.2-0.5,0.4-0.8,0.5C11.5,50.2,11.2,50.3,10.9,50.2z M17.6,50.9l-0.4-0.1L17,51.1L15,54l-0.4-4.3l-1.4,2
	L13,52.1l0.2,0.3l0,0l-0.1,0.1L12,51.7l0.1-0.1l0,0l0.4,0.1l0.3-0.3l1.6-2.3V49c0-0.3-0.1-0.4-0.2-0.5l0,0l0.1-0.1l0.7,0.5l0.4,3.9
	l1.3-1.9l0.2-0.4l-0.3-0.3l0,0l0.1-0.1l1.1,0.8L17.6,50.9L17.6,50.9z M19.8,55.8L17.7,55l0.1-0.2c0.4,0.1,0.6,0.2,0.7,0.2l0.3-0.2
	l1.1-2.9L19,51.7l0.1-0.1h1.5L19.3,55v0.4c0.1,0.1,0.3,0.2,0.6,0.3l0,0l0,0l0,0L19.8,55.8z M23.2,54.4c-0.2,0.7-0.5,1.3-1,1.7
	c-0.5,0.4-1,0.5-1.5,0.3l-0.3-0.1l0.1-0.2l0.2,0.1c0.4,0.1,0.8,0,1.1-0.2c0.2-0.2,0.4-0.4,0.6-0.7c0.2-0.3,0.3-0.6,0.4-1l0.1-0.3
	c-0.2,0.3-0.4,0.5-0.6,0.6s-0.5,0.1-0.7,0.1c-0.3-0.1-0.5-0.3-0.6-0.6c-0.1-0.3-0.1-0.7,0-1c0.1-0.4,0.3-0.8,0.7-1
	c0.3-0.2,0.6-0.3,1-0.2c0.4,0.1,0.7,0.4,0.8,0.9C23.4,53.3,23.3,53.8,23.2,54.4z M24.5,54c0.3,0.1,0.7,0.2,0.9,0.4
	c0.3,0.3,0.5,0.6,0.5,1s-0.3,0.9-0.6,1.1c-0.9,0.6-1.8,0.5-1.8,0.5v-0.2c1.8-0.4,1.7-1.2,1.7-1.2c0-0.4-0.1-0.7-0.4-1
	c-0.3-0.2-0.3-0.2-0.6-0.3h-0.1l0.3-1.8h2V53h-1.8l-0.1,0.8V54z M29.5,55.7h-0.7v1.2h-0.5v-1.2l-2-0.1v-0.4l1.8-2.5h0.6l-0.1,2.6
	h0.7L29.5,55.7z M34.8,55c-0.2,0.3-0.5,0.5-1,0.7c-0.4,0.1-0.8,0.1-1.1,0l-0.5-0.4c-0.1-0.2-0.2-0.4-0.3-0.8l-0.5-1.8l-0.2-0.4h-0.4
	l0,0v-0.2l1.5-0.5l0.1,0.2l0,0L32.1,52v0.4l0.5,1.8c0.2,0.5,0.4,0.9,0.6,1c0.3,0.2,0.6,0.2,0.9,0.1c0.3-0.1,0.5-0.3,0.6-0.5
	c0.1-0.3,0.1-0.6,0-1.1L34,52l-0.2-0.4h-0.4l0,0v-0.2l1.3-0.4v0.1l0,0l-0.3,0.2v0.4l0.5,1.7c0.1,0.4,0.2,0.7,0.2,0.9L34.8,55z
	 M37.5,53.2l0.3,0.3l0.4-0.1l0,0l0.1,0.1l-1.1,0.7l-0.1-0.1l0,0l0.3-0.3l-0.2-0.4l-1.5-2.3h-0.1c-0.2-0.1-0.4-0.1-0.5,0l0,0L35,51
	l0.7-0.5l3.8,1.1l-1.4-2l-0.3-0.3l-0.4,0.1l0,0l-0.1-0.1l1.1-0.7l0.1,0.1l0,0L38.2,49l0.2,0.4l1.9,2.9l-4.1-1.2L37.5,53.2z
	 M41.6,51.2L41.6,51.2L41.6,51.2l0.1-0.4l-0.2-0.4l-1.8-2l-0.4-0.2l-0.4,0.2l0,0l-0.1-0.1l1.2-1.1l0.1,0.1l0,0l-0.2,0.3l0.2,0.4
	l1.8,2l0.4,0.2l0.4-0.2l0,0l0.1,0.1L41.6,51.2z M44.8,47.8L41,46.9c-0.4-0.1-0.6-0.1-0.7,0l0,0l-0.1-0.1l0.8-1l0.1,0.1l0,0L41,46.1
	l0.1,0.1l0.4,0.1l2.9,0.6L43,44.3L42.8,44l-0.3,0.1l0,0L42.4,44l0.7-0.8L43,43.6l0,0l-0.1,0.3l0.2,0.5l1.8,3.3L44.8,47.8z
	 M46.8,44.7l-0.2-0.1l0,0v-0.4L46.2,44l-2.5-1l-0.4-0.1l-0.2,0.3l0,0L43,43.1l0.4-1c0,0,0.1-0.2,0.2-0.4c0.1-0.2,0.2-0.4,0.2-0.6
	c0.1-0.2,0.2-0.4,0.3-0.8l0.8,0.2l-0.1,0.2h-0.1h-0.5L43.9,41v0.1c-0.2,0.4-0.2,0.6-0.2,0.8l0.2,0.4l1.3,0.5l0.2-0.6
	c0.1-0.3,0.2-0.5,0.1-0.6l-0.3-0.2l0,0l0.1-0.2l1,0.4l-0.1,0.2l0,0h-0.4c-0.1,0.1-0.2,0.2-0.3,0.5l-0.2,0.6l1.5,0.6L47,43
	c0.2-0.4,0.2-0.7,0.2-0.8l-0.3-0.3h-0.1l0.1-0.2l0.7,0.4L46.8,44.7z M48.6,37.7l-2.2,0.9l-0.1,0.5l1.2,0.2h0.4l0.2-0.4l0,0h0.2
	L48,40.6h-0.2l0,0v-0.4L47.4,40l-2.6-0.5h-0.4l-0.2,0.4l0,0H44l0.3-1.6c0.1-0.5,0.2-0.8,0.4-1s0.4-0.2,0.7-0.2s0.5,0.2,0.7,0.4
	s0.3,0.5,0.3,0.8l0.3-0.2c0.1-0.1,0.3-0.2,0.6-0.3l0.5-0.2c0.3-0.2,0.5-0.2,0.6-0.3l0.2-0.2l0,0h0.2L48.6,37.7z M48.7,36.6l-0.8,0.1
	v-0.2l0,0c0.5-0.1,0.8-0.5,0.8-1c0-0.2,0-0.4-0.2-0.6L48,34.6c-0.3,0-0.5,0.2-0.8,0.6l-0.4,0.6c-0.3,0.4-0.5,0.6-0.6,0.7
	c-0.1,0.1-0.3,0.1-0.5,0.1c-0.3,0-0.6-0.2-0.8-0.4c-0.2-0.3-0.3-0.7-0.3-1.1c0-0.4,0.1-0.8,0.2-1.1h0.9v0.2l0,0
	c-0.3,0-0.5,0.2-0.6,0.3c-0.1,0.2-0.2,0.4-0.2,0.7c0,0.2,0.1,0.5,0.2,0.6c0.1,0.2,0.3,0.3,0.5,0.3c0.3,0,0.6-0.2,0.9-0.7l0.3-0.4
	c0.3-0.4,0.5-0.7,0.7-0.8L48,34c0.3,0,0.6,0.2,0.8,0.4c0.2,0.3,0.3,0.6,0.2,1.1C48.9,35.9,48.8,36.2,48.7,36.6z M49.3,10.2l-4.1,4.2
	V9.9l4.1-4.2V10.2z"/>
<path class="st1" d="M45.4,37.6c-0.3,0-0.5,0-0.6,0.2c-0.2,0.2-0.3,0.4-0.3,0.8v0.2l1.8,0.3l0.1-0.6c0-0.2-0.1-0.5-0.3-0.6
	C45.9,37.7,45.7,37.6,45.4,37.6z"/>
<path class="st1" d="M22.3,52.1l-0.6,0.2c-0.2,0.2-0.3,0.4-0.4,0.8c-0.1,0.3-0.1,0.6,0,0.9c0.1,0.2,0.2,0.4,0.5,0.5
	c0.2,0.1,0.5,0,0.6-0.1c0.2-0.2,0.3-0.4,0.4-0.8c0.1-0.3,0.1-0.7,0-0.9C22.7,52.3,22.5,52.2,22.3,52.1z"/>
</svg>
