<?xml version="1.0" encoding="utf-8"?>
<!-- Generator: Adobe Illustrator 23.0.3, SVG Export Plug-In . SVG Version: 6.00 Build 0)  -->
<svg version="1.1" id="Layer_1" xmlns="http://www.w3.org/2000/svg" xmlns:xlink="http://www.w3.org/1999/xlink" x="0px" y="0px"
	 viewBox="0 0 254.1 62.5" style="enable-background:new 0 0 254.1 62.5;" xml:space="preserve">
<style type="text/css">
	.st0{fill:#FFFFFF;}
	.st1{stroke:#FFFFFF;stroke-width:4.7366;}
	.st2{fill:#231F20;}
	.st3{fill:none;stroke:#231F20;stroke-width:8.840000e-02;}
	.st4{fill:#A52B43;}
</style>
<g>
	<path class="st0" d="M42,53.3H13c-2.8,0-5.1-2.3-5.1-5.1V11.7H47v36.5C47,51,44.8,53.3,42,53.3z"/>
	<path class="st1" d="M144.2-16.9"/>
	<path d="M144.2-16.9"/>
	<g>
		<path class="st2" d="M81.7,21.7h-19v1.7l4.3,1.4h35.8v-3.1H87.7v-3.5h10.4v-3.3h-1.6c0,0,2.1-8.9,2.1-11.7H67.3v1.6l4.3,1.4v13.4
			h6.3V18h3.7L81.7,21.7L81.7,21.7z M77.9,15.1V6.6h14.6L92,15.1L77.9,15.1L77.9,15.1z"/>
		<path class="st3" d="M81.7,21.7h-19v1.7l4.3,1.4h35.8v-3.1H87.7v-3.5h10.4v-3.3h-1.6c0,0,2.1-8.9,2.1-11.7H67.3v1.6l4.3,1.4v13.4
			h6.3V18h3.7L81.7,21.7L81.7,21.7z M77.9,15.1V6.6h14.6L92,15.1L77.9,15.1L77.9,15.1z"/>
		<polygon class="st2" points="68.6,27.7 98.1,27.7 98.1,41.7 91.8,41.7 91.8,30.7 71.8,30.7 68.6,29.3 		"/>
		<polygon class="st3" points="68.6,27.7 98.1,27.7 98.1,41.7 91.8,41.7 91.8,30.7 71.8,30.7 68.6,29.3 		"/>
		<path class="st2" d="M121.9,4.8c0.1-0.5-0.8-0.9-0.8-0.9l-7.4-1.1l0,1.1c0,0,1.3,0.4,1.7,0.7c0,0,0.7,0.4,0,1
			c-4.7,0.9-8.1,3.7-8.1,7.1c0,4.1,4.9,7.4,10.9,7.4c6.1,0,10.9-3.3,10.9-7.4c0-3.4-3.4-6.2-8-7.1C121.1,5.6,121.8,5.5,121.9,4.8
			L121.9,4.8z M117.9,17c-2.4,0-4.3-1.9-4.3-4.3s1.9-4.3,4.3-4.3s4.3,1.9,4.3,4.3C122.2,15,120.3,17,117.9,17L117.9,17z"/>
		<path class="st3" d="M121.9,4.8c0.1-0.5-0.8-0.9-0.8-0.9l-7.4-1.1l0,1.1c0,0,1.3,0.4,1.7,0.7c0,0,0.7,0.4,0,1
			c-4.7,0.9-8.1,3.7-8.1,7.1c0,4.1,4.9,7.4,10.9,7.4c6.1,0,10.9-3.3,10.9-7.4c0-3.4-3.4-6.2-8-7.1C121.1,5.6,121.8,5.5,121.9,4.8
			L121.9,4.8z M117.9,17c-2.4,0-4.3-1.9-4.3-4.3s1.9-4.3,4.3-4.3s4.3,1.9,4.3,4.3C122.2,15,120.3,17,117.9,17L117.9,17z"/>
		<polygon class="st2" points="129,1.5 129,3.3 132.3,4.7 132.3,26 121.2,26 121.2,27.8 125.3,29.2 131.9,29.2 131.9,33.9 
			138.4,33.9 138.4,3.4 		"/>
		<polygon class="st3" points="129,1.5 129,3.3 132.3,4.7 132.3,26 121.2,26 121.2,27.8 125.3,29.2 131.9,29.2 131.9,33.9 
			138.4,33.9 138.4,3.4 		"/>
		<path class="st2" d="M130.8,19.4c-10.1,3.7-26.3,2.4-26.3,2.4v1.5l2.9,1.2c2.1,0.1,4.1,0.2,5.9,0.1v6.2h6.3v-6.5
			c6.7-0.7,11.1-2,11.1-2L130.8,19.4L130.8,19.4z"/>
		<path class="st3" d="M130.8,19.4c-10.1,3.7-26.3,2.4-26.3,2.4v1.5l2.9,1.2c2.1,0.1,4.1,0.2,5.9,0.1v6.2h6.3v-6.5
			c6.7-0.7,11.1-2,11.1-2L130.8,19.4L130.8,19.4z"/>
		<path class="st2" d="M110.2,30.9v1.3l3.1,1.8v4.2c0,0,0.1,2.8,2.4,3.1h23.6v-3.1h-19.7v-5.7L110.2,30.9L110.2,30.9z"/>
		<path class="st3" d="M110.2,30.9v1.3l3.1,1.8v4.2c0,0,0.1,2.8,2.4,3.1h23.6v-3.1h-19.7v-5.7L110.2,30.9L110.2,30.9z"/>
		<path class="st2" d="M139.3,7.4v1.9l4.2,1.2v19.3c0,0,0.4,3.7,3.4,3.5c0,0,3.6,0.8,13.8-2.9l0.2-0.1v7.9h5.7V18.8h2.5v23h5.8v-25
			V3.5l-8.3-2v2.5l2.6,0.6v10.9h-2.5V4.8l-9.5-2.1v1.9l3.6,1.7v21.5c0,0-10,2.5-10.9,1.7V10.4h9.9v-3H139.3L139.3,7.4z"/>
		<path class="st3" d="M139.3,7.4v1.9l4.2,1.2v19.3c0,0,0.4,3.7,3.4,3.5c0,0,3.6,0.8,13.8-2.9l0.2-0.1v7.9h5.7V18.8h2.5v23h5.8v-25
			V3.5l-8.3-2v2.5l2.6,0.6v10.9h-2.5V4.8l-9.5-2.1v1.9l3.6,1.7v21.5c0,0-10,2.5-10.9,1.7V10.4h9.9v-3H139.3L139.3,7.4z"/>
		<polygon class="st2" points="184.7,3.8 198.2,3.8 198.2,6.6 188.8,6.6 184.7,5.4 		"/>
		<polygon class="st3" points="184.7,3.8 198.2,3.8 198.2,6.6 188.8,6.6 184.7,5.4 		"/>
		<path class="st2" d="M191.4,11.5c-6.1,0-11.1,3.3-11.1,7.4s5,7.4,11.1,7.4c6.1,0,11.1-3.3,11.1-7.4
			C202.4,14.8,197.5,11.5,191.4,11.5L191.4,11.5z M191.4,23.3c-2.4,0-4.4-2-4.4-4.4s2-4.4,4.4-4.4c2.4,0,4.4,2,4.4,4.4
			C195.8,21.4,193.8,23.3,191.4,23.3L191.4,23.3z"/>
		<path class="st3" d="M191.4,11.5c-6.1,0-11.1,3.3-11.1,7.4s5,7.4,11.1,7.4c6.1,0,11.1-3.3,11.1-7.4
			C202.4,14.8,197.5,11.5,191.4,11.5L191.4,11.5z M191.4,23.3c-2.4,0-4.4-2-4.4-4.4s2-4.4,4.4-4.4c2.4,0,4.4,2,4.4,4.4
			C195.8,21.4,193.8,23.3,191.4,23.3L191.4,23.3z"/>
		<path class="st2" d="M194.2,10.7h10V7.8h-26.2v1.8l3.8,1h6.9c0,0,1.9,0.5,0.1,1.5h5.5C194.2,12.2,196,11.4,194.2,10.7L194.2,10.7z
			"/>
		<path class="st3" d="M194.2,10.7h10V7.8h-26.2v1.8l3.8,1h6.9c0,0,1.9,0.5,0.1,1.5h5.5C194.2,12.2,196,11.4,194.2,10.7L194.2,10.7z
			"/>
		<polygon class="st2" points="202.4,1.6 202.4,3.4 205.6,4.7 205.6,26.5 211.7,26.5 211.7,18.9 217.6,18.9 217.6,15.5 211.9,15.5 
			211.9,3.3 		"/>
		<polygon class="st3" points="202.4,1.6 202.4,3.4 205.6,4.7 205.6,26.5 211.7,26.5 211.7,18.9 217.6,18.9 217.6,15.5 211.9,15.5 
			211.9,3.3 		"/>
		<polygon class="st2" points="181.1,27.7 181.1,29.7 184.8,30.6 205.4,30.6 205.4,41.7 211.4,41.7 211.4,27.7 		"/>
		<polygon class="st3" points="181.1,27.7 181.1,29.7 184.8,30.6 205.4,30.6 205.4,41.7 211.4,41.7 211.4,27.7 		"/>
		<path class="st2" d="M217.5,7.1v1.6l3.1,1.2h23.9v7.3c0,0-0.6,9.7-2.5,14.4h4.4c0,0,3.4-7,4.3-17.8V7.1H217.5L217.5,7.1z"/>
		<path class="st3" d="M217.5,7.1v1.6l3.1,1.2h23.9v7.3c0,0-0.6,9.7-2.5,14.4h4.4c0,0,3.4-7,4.3-17.8V7.1H217.5L217.5,7.1z"/>
		<polygon class="st2" points="222.7,16.3 222.7,18.6 225.6,19.5 225.6,34.8 214.3,34.8 214.3,36.5 218.8,38 253.9,38 253.9,35.1 
			240.9,35.1 240.9,16.9 231.7,14.9 231.7,17.1 234.6,18.4 234.6,35 231.5,35 231.5,17.9 		"/>
		<polygon class="st3" points="222.7,16.3 222.7,18.6 225.6,19.5 225.6,34.8 214.3,34.8 214.3,36.5 218.8,38 253.9,38 253.9,35.1 
			240.9,35.1 240.9,16.9 231.7,14.9 231.7,17.1 234.6,18.4 234.6,35 231.5,35 231.5,17.9 		"/>
		<path class="st2" d="M63.7,47.2c0,0-0.9,0.4-0.1,0.7c0,0,1.6,0.3,1.6,2.3v7.2c0,0,0.1,2.3-1.5,2.3c0,0-0.6,0.5,0.3,0.5h4.4
			c0,0,0.5-0.3,0-0.4c0,0-2.5,0.3-2.5-2.6v-8l0.3-0.1c0,0,5.1,10.7,5.3,11.4c0,0,4.9-10.8,5.4-11.2c0,0,0.4-0.6,0.4,0.3v7.9
			c0,0,0,2.3-2.3,2.3c0,0-1,0.3-0.2,0.5h5.2c0,0,0.5-0.3-0.2-0.5c0,0-1.5-0.2-1.5-2.4v-8.2c0,0,0.1-1.5,1.6-1.5c0,0,0.7-0.4-0.1-0.4
			h-3c0,0-1.6,5-4.9,10.8c0,0-2.1-3.6-5-10.8L63.7,47.2L63.7,47.2z"/>
		<path class="st2" d="M79.8,51.5c0,0,1.4-4.9,7.6-4.5c0,0,5.8,0.1,6.1,6.3c0,0,0.7,6.9-6.7,7.6c0,0-6.2,0.6-7.2-6.1
			C79.5,54.9,79.4,53.3,79.8,51.5L79.8,51.5z M81.1,53.6c-0.2,3.3,1.6,4.6,1.6,4.6c1.4,1.9,4.2,1.7,4.2,1.7c2.1,0.3,3.6-1.3,3.6-1.3
			c2.1-2.7,1-6.6,1-6.6c-0.7-3-3.5-3.8-3.5-3.8c-3.1-0.8-5.1,0.6-5.1,0.6C80.8,50.4,81.1,53.6,81.1,53.6L81.1,53.6z"/>
		<path class="st2" d="M122.8,51.3c0,0,1.4-4.9,7.6-4.5c0,0,5.8,0.1,6.1,6.3c0,0,0.7,6.9-6.7,7.6c0,0-6.2,0.6-7.2-6.1
			C122.6,54.7,122.4,53,122.8,51.3L122.8,51.3z M124.1,53.4c-0.2,3.3,1.6,4.6,1.6,4.6c1.4,1.9,4.2,1.7,4.2,1.7
			c2.1,0.3,3.6-1.3,3.6-1.3c2.1-2.7,1-6.6,1-6.6c-0.7-3-3.5-3.8-3.5-3.8c-3.1-0.8-5,0.6-5,0.6C123.8,50.2,124.1,53.4,124.1,53.4
			L124.1,53.4z"/>
		<path class="st2" d="M93.1,47.2c0,0-0.7,0.1-0.1,0.5c0,0,1.4-0.1,1.5,1.4v8.8c0,0,0.1,1.6-1.5,1.9c0,0-0.7,0.6,0.3,0.6H98
			c0,0,0.6-0.3-0.1-0.5c0,0-2.3,0.1-2.3-2.3v-4.2c0,0,1.1-0.3,3.7,3.4l2.4,3.4c0,0,0,0.2,0.3,0.2h2.1c0,0,0.6-0.4-0.7-0.7
			c0,0-0.5-0.2-1.1-1c0,0-2.4-3.1-3.1-3.9c0,0-1.3-1.6-2.3-2c0,0,2.9-3,3.8-3.8c0,0,0.7-0.9,1.9-1.1c0,0,0.7-0.3,0.1-0.5h-3.5
			c0,0-0.5,0.3,0,0.5c0,0,1.3,0.3,0.4,1.4c0,0-1.3,1.4-3.3,3.3c0,0-0.3-0.1-0.7,0v-3.3c0,0,0.1-1.4,1.7-1.4c0,0,0.6-0.4,0-0.4
			L93.1,47.2L93.1,47.2z"/>
		<path class="st2" d="M117.6,60.3l-3.2-10.1c-0.1-0.6-0.4-0.1-0.4-0.1s-3.1,8.2-3.2,9.7l-0.2,0.5h-0.9c-0.3-0.1-0.2-0.2-0.2-0.2
			l-1.7-6.1c-1.7-5.8-3-6.2-3-6.2c-1.1-0.3,0.1-0.5,0.1-0.5h5.3c0.5,0.2,0.1,0.6,0.1,0.6c-1.5-0.1-2.1,0.2-2.1,0.2
			c-0.4,0.1-0.7,0.8-0.6,1.2c0.5,1.7,1.2,4.3,1.2,4.3l1.6,4.9l3.6-10.8c0.1-0.5,0.7-0.5,0.7-0.5s0.3,0,0.9,2.3c0,0,1.4,5.5,2.7,8.4
			l0.3,0.6l2.3-7.7c0.5-1.8-0.2-2.4-0.2-2.4c-0.5-0.5-2.1-0.6-2.1-0.6c-0.7-0.2-0.1-0.4-0.1-0.4h4.1c0.6,0,0.2,0.6,0.2,0.6
			s-2.9,7.5-3.6,11.2c0,0-0.2,1.2-0.6,1.3L117.6,60.3L117.6,60.3z"/>
		<path class="st2" d="M146.6,57.5v-7.5c-0.1-1.6-0.9-1.9-0.9-1.9c-0.6-0.3-1.8-0.4-1.8-0.4c-0.6-0.3,0-0.6,0-0.6h4.9
			c0.9,0.2,0,0.6,0,0.6c-0.7,0.2-0.9,0.4-0.9,0.4c-0.5,0.2-0.5,1.1-0.5,1.1v10.6c-0.1,0.5-0.4,0.3-0.4,0.3c-0.8,0-1.2-1-1.2-1
			c-3.9-5.7-7.1-9.4-7.1-9.4l0,8c0.1,0.6,0.3,0.8,0.3,0.8c0.4,1.1,2.3,0.9,2.3,0.9c0.5,0.2,0.1,0.6,0.1,0.6h-5.2
			c-0.4-0.4,0-0.6,0-0.6c1.6,0.1,1.6-1.9,1.6-1.9l0-8.1c0.1-0.9-0.4-1.3-0.4-1.3c-0.6-0.7-1.2-0.6-1.2-0.6c-0.5-0.4,0-0.6,0-0.6h2.2
			c0,0,0.6,0.2,0.9,0.9c0,0,1.6,2.9,6.3,8.7C145.5,56.8,146.4,58,146.6,57.5L146.6,57.5z"/>
		<path class="st2" d="M152.9,47.3c0,0-0.8,0.2,0,0.4c0,0,1,0,1,0.9l0,7.5c0,0-0.1,4.6,4.7,4.6c0,0,4.4,0,4.4-4.6V49
			c0,0-0.1-1.3,1.2-1.3c0,0,0.6-0.4,0-0.4h-3.6c0,0-0.7-0.1,0,0.3c0,0,1.7,0.1,1.7,1.4v8.1c0,0-0.3,3-3.8,3c0,0-3.1-0.2-3.1-3.2
			v-7.7c0,0,0.1-1.2,1-1.3c0,0,0.8-0.3,1.4-0.2c0,0,0.9-0.5-0.1-0.5L152.9,47.3L152.9,47.3z"/>
		<path class="st2" d="M178.9,47.3c0,0-0.6,0.3-0.1,0.5c0,0,1-0.1,1,1.1v9.3c0,0,0,1.6-1.3,1.6c0,0-0.8,0.5,0,0.5h4.2
			c0,0,0.6-0.3-0.2-0.5c0,0-1.2,0-1.2-1.6v-9c0,0-0.1-1.5,1.4-1.5c0,0,0.8-0.4-0.2-0.5L178.9,47.3L178.9,47.3z"/>
		<path class="st2" d="M190.9,59.9c-0.4,1.2-1.8,0.7-1.8,0.7l-2.6-7.2l-1.9-4.6c-0.4-0.9-1-0.9-1-0.9c-0.5-0.3,0-0.6,0-0.6h5
			c0.8,0.2,0.1,0.6,0.1,0.6l-1.1,0.1c-1.6,0.3-0.6,2.5-0.6,2.5l3.2,9.2l3.6-9.6c0.3-1-0.3-1.5-0.3-1.5c-0.6-0.7-1.8-0.6-1.8-0.6
			c-0.5-0.3,0-0.6,0-0.6h3.8c0,0,0.6,0,0.1,0.6C195.5,47.9,193,53.3,190.9,59.9L190.9,59.9z"/>
		<path class="st2" d="M196.5,47.8c0,0,1.2,0.3,1.2,1.6v9c0,0,0.1,1.3-1.3,1.3c0,0-0.7,0.2,0,0.5h9v-3.4c0,0-0.4-0.6-0.6,0.1
			c0,0,0.3,2.6-1.6,2.6h-4.1v-5.8l1.9,0c0,0,2-0.1,2,1.7c0,0,0.2,0.9,0.5,0v-3.6c0,0-0.4-0.8-0.5,0c0,0,0.1,1.4-1.4,1.4l-2.4,0v-4.1
			c0,0-0.2-1.2,1.2-1.2h2.9c0,0,1.4-0.1,1.4,1.8c0,0,0.2,0.6,0.5,0v-2.6h-8.6C196.5,47.2,195.9,47.5,196.5,47.8L196.5,47.8z"/>
		<path class="st2" d="M211.9,53.5c1.6,0.3,2.6,2.9,2.6,2.9c0.3,0.9,1.2,2.5,1.2,2.5c0.4,0.6,1.2,0.9,1.2,0.9
			c0.4,0.2,0.1,0.5,0.1,0.5h-2.1c-0.4,0-2.3-4.6-2.3-4.6c-0.7-1.5-1.6-1.9-1.6-1.9c-0.5-0.3-1.6-0.2-1.6-0.2V58
			c0,1.8,1.7,1.8,1.7,1.8c1,0,0.5,0.6,0.5,0.6h-5.1c-0.7-0.3,0.1-0.6,0.1-0.6c1.7,0.1,1.3-1.7,1.3-1.7v-9.4c0-0.8-1.3-0.7-1.3-0.7
			c-0.6-0.4,0-0.7,0-0.7h5.6c3.2,0,3.1,3.2,3.1,3.2C215.2,53.3,211.9,53.5,211.9,53.5L211.9,53.5z M213.9,50.5c0,0,0.1-2.6-2.8-2.6
			c0,0-1.8-0.2-1.8,0.9v4.1l2.4,0C211.7,52.9,213.8,52.5,213.9,50.5L213.9,50.5z"/>
		<path class="st2" d="M221.8,47.2c0,0-4.2,0-4.2,3.3c0,0-0.1,1.7,1.9,2.6l3.7,1.9c0,0,1.2,0.5,1.2,2.2c0,0,0.3,2.6-2.8,2.6
			c0,0-3.3,0.2-3.2-1.7l-0.1-1.2c0,0-0.4-0.8-0.7-0.2V60c0,0,0.1,0.3,0.6,0.3h4.3c0,0,3.2,0.1,3.3-3c0,0,0.3-2.1-2.1-3.4l-3.8-2
			c0,0-0.8-0.3-0.8-1.6c0,0-0.4-2.4,2.7-2.4c0,0,2.8-0.3,2.8,2.4c0,0,0.3,0.7,0.6,0v-2.8c0,0-0.1-0.3-0.5-0.3L221.8,47.2L221.8,47.2
			z"/>
		<path class="st2" d="M231.9,47.2h10.6c0,0,0.2,0,0.2,0.4v2.6c0,0-0.3,0.5-0.5,0c0,0-0.5-2.4-2.4-2.4h-1.8v10c0,0-0.1,2,2,2
			c0,0,0.6,0.5,0.1,0.5h-5.7c0,0-0.6-0.2,0.2-0.5c0,0,2.1,0.3,2.1-2.2v-9.8h-2c0,0-2.2-0.1-2.3,2.3c0,0-0.4,0.7-0.6-0.1L231.9,47.2
			L231.9,47.2z"/>
		<path class="st2" d="M244,47.1c0,0-0.7,0.1-0.1,0.7c0,0,0.7-0.3,4.4,5.9V58c0,0,0.2,1.7-1.7,1.7c0,0-0.8,0.3,0,0.5h5.1
			c0,0,0.5-0.2-0.1-0.5c0,0-1.9,0.2-1.9-1.8v-4.3c0,0,3.4-5.3,4.3-6.3c0,0,0.3-0.3-0.2-0.3h-1.2l-3.2,6.4l-2.6-4
			c0,0-0.9-1.6,0.9-1.6l1,0c0,0,0.7-0.3,0.1-0.5L244,47.1L244,47.1z"/>
		<path class="st2" d="M175.3,57.6v-7.5c-0.1-1.6-0.9-1.9-0.9-1.9c-0.6-0.3-1.8-0.4-1.8-0.4c-0.6-0.3,0-0.6,0-0.6h4.9
			c0.9,0.2,0,0.6,0,0.6c-0.7,0.2-0.9,0.4-0.9,0.4c-0.5,0.2-0.5,1.1-0.5,1.1v10.6c-0.1,0.6-0.4,0.3-0.4,0.3c-0.9-0.4-1.2-1.2-1.2-1.2
			c-4-6-7.1-9.4-7.1-9.4l0,8.3c0.1,0.6,0.3,0.8,0.3,0.8c0.4,1.1,2.3,0.9,2.3,0.9c0.5,0.2,0.1,0.6,0.1,0.6h-5.1c-0.4-0.4,0-0.6,0-0.6
			c1.6,0.1,1.6-1.9,1.6-1.9l0-8.1c0.1-0.9-0.4-1.3-0.4-1.3c-0.6-0.7-1.2-0.6-1.2-0.6c-0.5-0.4,0-0.6,0-0.6h2.2c0,0,0.6,0.2,0.9,0.9
			c0,0,1.6,2.9,6.3,8.7C174.3,56.8,175.2,58,175.3,57.6L175.3,57.6z"/>
		<path class="st2" d="M227.3,47.2c0,0-0.6,0.3-0.1,0.5c0,0,1-0.1,1,1.1v9.3c0,0,0,1.6-1.3,1.6c0,0-0.9,0.5,0,0.5h4.2
			c0,0,0.6-0.3-0.2-0.5c0,0-1.2,0-1.2-1.6v-8.9c0,0-0.1-1.5,1.3-1.5c0,0,0.8-0.4-0.2-0.5L227.3,47.2L227.3,47.2z"/>
		<path class="st4" d="M26.5,62.4C12,62.4,0,51.1,0,36.1l0-1.7V3.2h2.7l4.2,4.3V1.3h3.7l5.3,5.5v-7h5.7l4.5,5.4l4.4-5.4l6.3,0v6.7
			l4.6-5.3h3.8v6.2l4.1-4.2h3.1l0,31.9v1.3c0,14.5-11.5,26-26.6,26 M26.8,51.7c6.4,0,14.7-6,14.8-14.9l0-0.9l0-20.4L36.8,21v14
			c0,4.8-1.3,6.3-1.3,6.3c-0.1-0.3-0.6-5.8-0.6-11v-6h-0.7v5.9c0,0,0,0.2,0,1.2l-0.4,12l-0.7,0.8c-0.2-2.5-0.8-8.7-0.9-14.8l0-7.9
			h-0.7v8.1c0,8.7-0.4,15.8-0.4,15.8l-0.8,0.5c-0.4-3.1-0.8-8.9-1-16.8v-9.9h-0.7l-0.1,9c0,0,0.1,1.3,0,3l-0.3,15.2l-0.9,0.1
			c-0.4-2.3-0.8-10.1-0.9-17.8l0-11.3l-0.7,0v11.4l0,2l-0.3,15.7l-0.8-0.1c-0.2-0.7-0.6-6.6-0.9-17.2v-10h-0.7v10
			c0,13.2-0.4,16.9-0.4,16.9l-0.6-0.3c-0.4-1.6-0.9-10.3-1.1-16.4v-7.4h-0.7v7.7c0.1,7.4-0.4,14.7-0.4,14.7l-0.7-0.8
			c-0.3-1.7-0.7-6.3-0.8-13v-6.2h-0.7v6.3l-0.3,10.5c-1.5-1-1.5-7.4-1.5-7.4V20.9l-5-5.1V36l0,0.3c0,7.5,6.7,15.4,15.5,15.4H26.8
			L26.8,51.7z"/>
		<polygon class="st0" points="6.9,16.1 6.9,11.6 2.9,7.4 2.9,12.2 		"/>
		<polygon class="st0" points="15.9,16.9 10.9,11.9 10.9,6.7 15.9,11.7 		"/>
		<polygon class="st0" points="45.2,16 45.2,11.5 49.3,7.3 49.3,11.9 		"/>
		<polygon class="st0" points="22.6,14 20,10.9 20,4.6 25.3,10.8 		"/>
		<path class="st0" d="M7.8,28.1H4.9c-0.2,0-0.4,0-0.4,0.1l-0.1,0.4v0H4.2V27h0.2v0l0.1,0.4c0.1,0.1,0.2,0.1,0.5,0.1h2.6L8,27.5
			l0.1-0.4v0h0.2v1l-2.9,1.5l2.9,1.6v1H8.1v0L8,31.7l-0.4-0.1H4.9l-0.4,0.1l-0.1,0.4v0H4.2v-1.3h0.2v0l0.1,0.4l0.4,0.1h2.7l-3-1.6
			L7.8,28.1L7.8,28.1z"/>
		<path class="st0" d="M4.8,33.8c0.4-0.3,0.8-0.4,1.4-0.4s1,0.1,1.4,0.4c0.4,0.3,0.6,0.6,0.6,1s-0.2,0.8-0.6,1
			c-0.4,0.3-0.8,0.4-1.4,0.4S5.2,36,4.8,35.8c-0.4-0.3-0.6-0.6-0.6-1C4.3,34.4,4.5,34,4.8,33.8L4.8,33.8z M4.7,36.2
			c0.4,0.4,0.9,0.6,1.5,0.6c0.3,0,0.6-0.1,0.9-0.2c0.3-0.1,0.6-0.3,0.8-0.5c0.3-0.3,0.5-0.8,0.5-1.3c0-0.6-0.2-1.1-0.6-1.5
			c-0.4-0.4-0.9-0.6-1.5-0.6c-0.6,0-1.2,0.2-1.6,0.6c-0.4,0.4-0.6,0.9-0.6,1.5C4.1,35.4,4.3,35.9,4.7,36.2L4.7,36.2z"/>
		<path class="st0" d="M4.4,40.3l1.9-2.1L5,38.2l-0.4,0.1l-0.1,0.4v0l-0.2,0l-0.1-1.6l0.2,0v0l0.1,0.4L5,37.7l2.7-0.1l0.4-0.1
			L8.2,37v0l0.2,0l0.1,1.6l-0.2,0v0l-0.1-0.4l-0.4-0.1l-1.2,0.1l1.3,1.2c0.2,0.2,0.4,0.3,0.4,0.3l0.1-0.3v0l0.2,0l0.1,1.2l-0.2,0v0
			c0-0.2-0.2-0.5-0.6-0.8l-1.1-1.1l-1.5,1.7l-0.4,0.5l-0.1,0.3v0l-0.2,0L4.4,40.3L4.4,40.3z"/>
		<polygon class="st0" points="5.9,44.9 8.5,42.4 8.8,42.1 8.8,41.8 8.8,41.8 8.9,41.7 9.4,42.6 9.3,42.7 9.2,42.7 8.9,42.5 
			8.6,42.7 6.7,44.5 10.2,44.2 10.2,44.4 7.8,46.7 10.4,46.4 10.7,46.3 10.9,46.1 10.8,45.9 10.8,45.8 10.9,45.8 11.5,47 11.4,47.1 
			11.3,47 11.1,46.9 10.6,46.9 7,47.4 6.9,47.2 9.5,44.8 5.9,45.1 		"/>
		<path class="st0" d="M12.8,48.5c0.3,0.3,0.4,0.7,0.3,1.1c-0.1,0.4-0.4,0.9-0.8,1.3c-0.4,0.4-0.9,0.6-1.3,0.7s-0.8-0.1-1.1-0.4
			c-0.3-0.3-0.4-0.7-0.3-1.1c0.1-0.4,0.4-0.9,0.8-1.3c0.4-0.4,0.9-0.6,1.3-0.7C12.1,48,12.5,48.2,12.8,48.5L12.8,48.5z M12.9,48.4
			c-0.4-0.4-0.9-0.7-1.4-0.7c-0.6,0-1.1,0.2-1.5,0.6c-0.5,0.4-0.7,0.9-0.8,1.5c-0.1,0.6,0.1,1.1,0.5,1.5c0.4,0.4,0.8,0.6,1.2,0.7
			c0.3,0,0.6,0,0.9-0.1c0.3-0.1,0.6-0.3,0.8-0.5c0.5-0.4,0.7-0.9,0.8-1.5C13.5,49.3,13.3,48.8,12.9,48.4L12.9,48.4z"/>
		<path class="st0" d="M14.9,55.7l-0.4-4.3l-1.4,2l-0.2,0.4l0.3,0.3l0,0l-0.1,0.1L12,53.4l0.1-0.1l0,0l0.4,0.1l0.3-0.3l1.6-2.3
			l0-0.1c0-0.3-0.1-0.4-0.2-0.5l0,0l0.1-0.1l0.7,0.5l0.4,3.9l1.3-1.9l0.2-0.4l-0.3-0.3l0,0l0.1-0.1l1.1,0.8l-0.1,0.1l0,0l-0.4-0.1
			l-0.3,0.3L14.9,55.7L14.9,55.7z"/>
		<path class="st0" d="M19.9,53.6L19,53.4l0.1-0.2l1.5,0l-1.3,3.4l0,0.4c0.1,0.1,0.3,0.2,0.6,0.3h0h0l0,0l-0.1,0.2l-2.1-0.8l0.1-0.2
			c0.4,0.1,0.6,0.2,0.7,0.2l0.3-0.3L19.9,53.6L19.9,53.6z"/>
		<path class="st0" d="M28.3,55.1l-0.1,2L26.9,57L28.3,55.1L28.3,55.1z M28.7,58.5l0-1.2l0.7,0l0-0.4l-0.7,0l0.1-2.6l-0.6,0
			l-1.9,2.5l0,0.4l1.9,0.1l0,1.2L28.7,58.5L28.7,58.5z"/>
		<path class="st0" d="M30.7,54.2L30.7,54.2L30.6,54l1.5-0.5l0,0.2l0,0l-0.3,0.2l0,0.4l0.5,1.8c0.2,0.5,0.4,0.9,0.6,1
			c0.3,0.2,0.6,0.2,0.9,0.1c0.3-0.1,0.5-0.3,0.6-0.5s0.1-0.6,0-1.1L34,53.7l-0.2-0.4l-0.4,0l0,0l0-0.2l1.3-0.4l0,0.2l0,0l-0.3,0.2
			l0,0.4l0.5,1.7c0.1,0.4,0.2,0.7,0.2,0.9l-0.2,0.6c-0.2,0.3-0.5,0.6-1,0.7c-0.4,0.1-0.8,0.1-1.1,0l-0.5-0.4
			c-0.1-0.2-0.2-0.4-0.3-0.8l-0.5-1.8l-0.2-0.4L30.7,54.2L30.7,54.2z"/>
		<path class="st0" d="M40.3,54.1l-4.2-1.2l1.3,2.1l0.3,0.3l0.4-0.1l0,0l0.1,0.1l-1.1,0.7l-0.1-0.1l0,0l0.3-0.3l-0.2-0.4l-1.5-2.3
			l-0.1,0c-0.3-0.1-0.4-0.1-0.5,0l0,0l-0.1-0.1l0.7-0.4l3.8,1.1l-1.3-1.9L37.8,51l-0.4,0.1l0,0L37.3,51l1.1-0.7l0.1,0.1l0,0
			l-0.3,0.3l0.2,0.4L40.3,54.1L40.3,54.1z"/>
		<polygon class="st0" points="40,49 39.8,49.4 40,49.8 41.9,51.7 42.2,52 42.6,51.8 42.6,51.7 42.7,51.9 41.6,53 41.5,52.8 
			41.5,52.8 41.7,52.5 41.5,52.1 39.6,50.1 39.3,49.9 38.9,50.1 38.9,50.1 38.8,50 40,48.9 40.1,49 		"/>
		<path class="st0" d="M41.4,48.2l2.9,0.7l-1.4-2.6L42.7,46l-0.3,0.1l0,0L42.2,46l0.7-0.8l0.1,0.1l0,0l-0.1,0.3L43,46l1.8,3.3
			l-0.1,0.1L41,48.6c-0.4-0.1-0.6-0.1-0.7,0l0,0l-0.1-0.1l0.8-1l0.1,0.1l0,0l-0.1,0.2l0.1,0.1L41.4,48.2L41.4,48.2z"/>
		<path class="st0" d="M45.7,43.4l-0.3-0.2l0,0l0.1-0.2l1,0.4l-0.1,0.2l0,0l-0.4,0c-0.1,0.1-0.2,0.2-0.3,0.5l-0.3,0.6l1.5,0.6
			l0.2-0.5c0.2-0.4,0.3-0.7,0.2-0.8l-0.3-0.3l0,0l0.1-0.2l0.7,0.4l-1.1,2.7l-0.2-0.1l0,0l0-0.4l-0.4-0.3l-2.5-1l-0.4-0.1l-0.2,0.3
			l0,0L43,44.8l0.4-1c0,0,0.1-0.2,0.2-0.4c0.1-0.2,0.2-0.4,0.2-0.6c0.1-0.2,0.2-0.4,0.3-0.8l0.8,0.3l-0.1,0.2l0,0h-0.5l-0.3,0.3
			l0,0.1c-0.2,0.4-0.2,0.6-0.2,0.8L44,44l1.3,0.5l0.3-0.6C45.7,43.7,45.8,43.5,45.7,43.4L45.7,43.4z"/>
		<path class="st0" d="M44.5,40.3c0.1-0.4,0.2-0.7,0.3-0.8c0.2-0.2,0.4-0.2,0.6-0.2c0.3,0,0.5,0.2,0.6,0.3c0.2,0.2,0.2,0.4,0.3,0.6
			l-0.1,0.6l-1.8-0.3L44.5,40.3L44.5,40.3z M48.6,39.4l0.2-0.8l-0.2,0l0,0l-0.2,0.3c-0.1,0.1-0.3,0.2-0.6,0.3l-0.5,0.2
			c-0.3,0.1-0.5,0.2-0.6,0.3l-0.3,0.3c0-0.4-0.2-0.6-0.3-0.8c-0.2-0.2-0.4-0.3-0.7-0.4c-0.3,0-0.5,0-0.7,0.2c-0.2,0.2-0.3,0.5-0.4,1
			l-0.3,1.6l0.2,0l0,0l0.2-0.4l0.4,0l2.6,0.5l0.4,0.2l0,0.4l0,0l0.2,0l0.3-1.6l-0.2,0l0,0L48,41.1l-0.4,0l-1.2-0.2l0.1-0.5
			L48.6,39.4L48.6,39.4z"/>
		<path class="st0" d="M44.8,35.6l0.9,0l0,0.2l0,0c-0.3,0-0.5,0.2-0.6,0.3c-0.2,0.2-0.2,0.4-0.2,0.7c0,0.3,0.1,0.5,0.2,0.6
			c0.2,0.2,0.3,0.3,0.5,0.3c0.3,0,0.6-0.2,0.9-0.7l0.3-0.4c0.3-0.4,0.5-0.7,0.7-0.8l0.5-0.2c0.3,0,0.6,0.2,0.8,0.4
			c0.2,0.3,0.3,0.6,0.3,1.1c0,0.3-0.1,0.7-0.2,1l-0.8,0.1l0-0.2l0,0c0.5-0.1,0.8-0.5,0.8-1c0-0.2,0-0.4-0.2-0.6L48,36.3
			c-0.3,0-0.5,0.2-0.8,0.6l-0.4,0.6c-0.3,0.4-0.5,0.6-0.6,0.7c-0.2,0.1-0.3,0.2-0.6,0.2c-0.3,0-0.6-0.2-0.8-0.5
			c-0.2-0.3-0.3-0.7-0.3-1.1C44.6,36.3,44.7,36,44.8,35.6L44.8,35.6z"/>
		<path class="st0" d="M44.9,33.6L45,34l0.4,0.1h2.7l0.4-0.1l0.1-0.4v0h0.2v1.6h-0.2v0l-0.1-0.4l-0.4-0.1h-2.7c-0.2,0-0.4,0-0.4,0.1
			l-0.1,0.4v0h-0.2v-1.6L44.9,33.6L44.9,33.6L44.9,33.6z"/>
		<path class="st0" d="M48.1,31.7h-3.2v0.4c0,0.3,0,0.6,0.1,0.7c0.1,0.1,0.3,0.2,0.5,0.3l0,0v0.2l-0.9-0.1c0-0.5,0.1-1,0.1-1.5v-0.6
			c0-0.5,0-1-0.1-1.5l0.9-0.1v0.2l0,0c-0.2,0-0.4,0.1-0.5,0.3s-0.1,0.3-0.1,0.7v0.4h3.2c0.2,0,0.4,0,0.4-0.1s0.1-0.2,0.1-0.5v0h0.2
			v1.8h-0.2v0c0-0.2,0-0.4-0.1-0.5C48.4,31.7,48.3,31.7,48.1,31.7L48.1,31.7z"/>
		<path class="st0" d="M48,27.5h-1.2l-1.5,0.9c-0.3,0.2-0.5,0.4-0.5,0.6v0h-0.2v-1.4h0.2v0.1l0.1,0.2l0.4-0.2l1.2-0.8l-1.3-0.7
			l-0.3-0.2l-0.2,0.2v0.1h-0.2v-1.1h0.2v0.1l0.1,0.3c0.1,0.1,0.2,0.2,0.4,0.3l1.5,0.8H48c0.2,0,0.4,0,0.4-0.1
			c0.1-0.1,0.1-0.2,0.1-0.5v0h0.2v1.8h-0.2v0c0-0.2,0-0.4-0.1-0.5C48.3,27.5,48.2,27.5,48,27.5L48,27.5z"/>
		<path class="st0" d="M22.8,54.3c0.1,0.3,0.1,0.6,0,0.9c-0.1,0.3-0.2,0.6-0.4,0.8c-0.2,0.2-0.4,0.2-0.6,0.1
			c-0.2-0.1-0.4-0.2-0.5-0.5c-0.1-0.3-0.1-0.6,0-0.9c0.1-0.3,0.2-0.6,0.4-0.8l0.6-0.2C22.5,53.9,22.7,54,22.8,54.3L22.8,54.3z
			 M20.6,58.2c0.5,0.2,1,0.1,1.5-0.3c0.5-0.4,0.8-0.9,1-1.7c0.2-0.6,0.2-1.2,0-1.6c-0.1-0.5-0.4-0.8-0.8-0.9c-0.3-0.1-0.7,0-1,0.2
			c-0.3,0.2-0.5,0.6-0.6,1c-0.1,0.4-0.1,0.7,0,1c0.1,0.3,0.3,0.5,0.6,0.6c0.2,0.1,0.5,0.1,0.7-0.1c0.2-0.1,0.5-0.3,0.6-0.6l-0.1,0.3
			c-0.1,0.3-0.2,0.7-0.4,0.9c-0.2,0.3-0.4,0.5-0.6,0.7C21.4,58,21,58,20.6,57.9l-0.2-0.1L20.4,58L20.6,58.2L20.6,58.2z"/>
		<path class="st0" d="M24.5,55.7c0.3,0.1,0.7,0.2,0.9,0.4c0.3,0.3,0.5,0.6,0.5,1c0,0.4-0.3,0.9-0.6,1.1c-0.9,0.6-1.8,0.6-1.8,0.6
			l0-0.2c1.8-0.4,1.7-1.3,1.7-1.3c0-0.4-0.1-0.7-0.4-1c-0.3-0.2-0.3-0.3-0.6-0.3h-0.1l0.3-1.8l2,0l0,0.5l-1.8,0l-0.1,0.8L24.5,55.7
			L24.5,55.7z"/>
		<polygon class="st0" points="29.7,14 32,11.2 32.1,4.7 27,10.8 		"/>
		<polygon class="st0" points="36.8,16.8 41.6,11.4 41.6,6.3 36.8,11.6 		"/>
	</g>
</g>
</svg>
